<svg width="48" height="48" viewBox="0 0 48 48" fill="none" xmlns="http://www.w3.org/2000/svg">
<path d="M48 3.80069V2.52362C48 1.18741 46.9129 0.100281 45.5767 0.100281H2.42334C1.08713 0.100281 0 1.18741 0 2.52362V3.80078C0 4.92494 0.7695 5.87266 1.80947 6.14519V39.648C0.7695 39.9204 0 40.868 0 41.9922V45.4757C0 46.8119 1.08713 47.899 2.42334 47.899H11.2448C11.6321 47.899 13.5 47.6374 13.5 47.2499C13.5 46.8625 11.6322 46.496 11.2448 46.496H2.42334C1.86075 46.496 1.40297 46.0383 1.40297 45.4757V41.9922C1.40297 41.4295 1.86075 40.9718 2.42334 40.9718H2.511H45.489H45.5767C46.1393 40.9718 46.597 41.4295 46.597 41.9922V45.4757C46.597 46.0383 46.1393 46.496 45.5767 46.496H11.2448C10.8574 46.496 12.75 46.8101 12.75 47.1975C12.75 47.5849 10.8573 47.899 11.2448 47.899H45.5767C46.9129 47.899 48 46.8119 48 45.4757V41.9922C48 40.868 47.2304 39.9203 46.1904 39.6478V6.14509C47.2304 5.87266 48 4.92494 48 3.80069ZM1.40297 3.80069V2.52362C1.40297 1.96094 1.86075 1.50325 2.42334 1.50325H45.5767C46.1393 1.50325 46.597 1.96094 46.597 2.52362V3.80078C46.597 4.36347 46.1393 4.82116 45.5767 4.82116H45.489H32.0154H32.0135H2.511H2.42334C1.86075 4.82106 1.40297 4.36337 1.40297 3.80069ZM26.0163 24.1334C24.7484 24.3366 23.6597 25.0816 22.9942 26.1222C22.3287 25.0817 21.2399 24.3366 19.972 24.1334V6.22403H26.0163V24.1334ZM26.7178 25.4801C28.3799 25.4801 29.7323 26.8323 29.7323 28.4945C29.7323 30.1567 28.38 31.5089 26.7178 31.5089C25.0557 31.5089 23.7035 30.1567 23.7035 28.4945C23.7035 26.8323 25.0557 25.4801 26.7178 25.4801ZM12.5248 24.1334V6.22403H18.5691V24.1334C17.3012 24.3366 16.2124 25.0816 15.5469 26.1222C14.8815 25.0817 13.7927 24.3366 12.5248 24.1334ZM14.8376 28.4944C14.8376 30.1565 13.4855 31.5088 11.8233 31.5088C10.1611 31.5088 8.80894 30.1566 8.80894 28.4944C8.80894 26.8323 10.1612 25.48 11.8233 25.48C13.4854 25.48 14.8376 26.8323 14.8376 28.4944ZM19.2706 25.4801C20.9327 25.4801 22.2849 26.8323 22.2849 28.4945C22.2849 30.1567 20.9328 31.5089 19.2706 31.5089C17.6085 31.5089 16.2562 30.1567 16.2562 28.4945C16.2562 26.8323 17.6085 25.4801 19.2706 25.4801ZM4.72069 39.5689H3.21244V6.22403H4.72069V39.5689ZM44.7875 39.5689H43.2792V9.74994C43.2792 9.36247 42.9652 12.5771 42.5777 12.5771C42.1902 12.5771 41.8762 12.8912 41.8762 13.2785V39.5689H6.12366V6.22403H11.1218V24.1334C9.01838 24.4705 7.40597 26.2974 7.40597 28.4944C7.40597 30.9301 9.38756 32.9118 11.8233 32.9118C13.3865 32.9118 14.7616 32.0948 15.5469 30.8662C16.3323 32.0948 17.7074 32.9118 19.2706 32.9118C20.8338 32.9118 22.2089 32.0948 22.9943 30.8662C23.7796 32.0948 25.1547 32.9118 26.7178 32.9118C29.1536 32.9118 31.1352 30.9302 31.1352 28.4944C31.1352 26.2974 29.5228 24.4705 27.4193 24.1334V6.22403H31.4221L34.8358 24.2857C33.0538 24.8549 31.7594 26.5261 31.7594 28.4944C31.7594 30.9301 33.741 32.9118 36.1767 32.9118C38.6124 32.9118 40.594 30.9302 40.594 28.4944C40.594 26.0747 38.638 24.104 36.2243 24.0783L32.8498 6.22403H41.8763V13.4999C41.8763 13.8874 42.1903 13.4999 42.5778 13.4999C42.9652 13.4999 43.2793 13.8874 43.2793 13.4999V6.22403H44.7876L44.7875 39.5689ZM36.1767 25.4801C37.8388 25.4801 39.1911 26.8323 39.1911 28.4945C39.1911 30.1567 37.8388 31.5089 36.1767 31.5089C34.5146 31.5089 33.1624 30.1567 33.1624 28.4945C33.1624 26.8323 34.5146 25.4801 36.1767 25.4801Z" fill="#E27410"/>
</svg>
