<svg width="48" height="44" viewBox="0 0 48 44" fill="none" xmlns="http://www.w3.org/2000/svg">
<path d="M45.6 7.2H35.2V4C35.1973 1.7918 33.4082 0.00273438 31.2 0H16.8C14.5918 0.00273438 12.8027 1.7918 12.8 4V7.2H2.4C1.07461 7.2 0 8.27461 0 9.6V27.4078C0.00507812 28.4227 0.644531 29.3254 1.6 29.6664V40.8C1.6 42.1254 2.67461 43.2 4 43.2H44C45.3254 43.2 46.4 42.1254 46.4 40.8V29.6672C47.3555 29.3258 47.9953 28.4227 48 27.4078V9.6C48 8.27461 46.9254 7.2 45.6 7.2ZM14.4 4C14.4 2.67461 15.4746 1.6 16.8 1.6H31.2C32.5254 1.6 33.6 2.67461 33.6 4V7.2H32V4C32 3.5582 31.6418 3.2 31.2 3.2H16.8C16.3582 3.2 16 3.5582 16 4V7.2H14.4V4ZM30.4 7.2H17.6V4.8H30.4V7.2ZM44.8 40.8C44.8 41.2418 44.4418 41.6 44 41.6H4C3.5582 41.6 3.2 41.2418 3.2 40.8V29.9414L20.8 32.3688V34.4C20.8 35.7254 21.8746 36.8 23.2 36.8H24.8C26.1254 36.8 27.2 35.7254 27.2 34.4V32.3688L44.8 29.9414V40.8ZM25.6 34.4C25.6 34.8418 25.2418 35.2 24.8 35.2H23.2C22.7582 35.2 22.4 34.8418 22.4 34.4V29.6C22.4 29.1582 22.7582 28.8 23.2 28.8H24.8C25.2418 28.8 25.6 29.1582 25.6 29.6V34.4ZM46.4 27.4078C46.4004 27.8066 46.107 28.1449 45.7121 28.2008L45.4902 28.2313L27.2 30.7535V29.6C27.2 28.2746 26.1254 27.2 24.8 27.2H23.2C21.8746 27.2 20.8 28.2746 20.8 29.6V30.7535L2.28867 28.2008C1.89375 28.1453 1.59961 27.807 1.6 27.4078V9.6C1.6 9.1582 1.9582 8.8 2.4 8.8H45.6C46.0418 8.8 46.4 9.1582 46.4 9.6V27.4078Z" fill="#E27410"/>
</svg>
