<svg width="48" height="48" viewBox="0 0 48 48" fill="none" xmlns="http://www.w3.org/2000/svg">
<path d="M24.2599 17.0163H6.26138C5.87307 17.0163 5.55835 17.3311 5.55835 17.7193C5.55835 18.1076 5.87307 18.4224 6.26138 18.4224H24.26C24.6483 18.4224 24.963 18.1075 24.963 17.7193C24.963 17.3311 24.6483 17.0163 24.2599 17.0163Z" fill="white"/>
<path d="M24.2599 21.9563H6.26138C5.87307 21.9563 5.55835 22.2711 5.55835 22.6593C5.55835 23.0475 5.87307 23.3624 6.26138 23.3624H24.26C24.6483 23.3624 24.963 23.0475 24.963 22.6593C24.963 22.2711 24.6483 21.9563 24.2599 21.9563Z" fill="white"/>
<path d="M24.2599 26.8966H6.26138C5.87307 26.8966 5.55835 27.2114 5.55835 27.5996C5.55835 27.9879 5.87307 28.3027 6.26138 28.3027H24.26C24.6483 28.3027 24.963 27.9879 24.963 27.5996C24.963 27.2114 24.6483 26.8966 24.2599 26.8966Z" fill="white"/>
<path d="M24.963 32.5402C24.963 32.1519 24.6483 31.8372 24.26 31.8372H6.26138C5.87307 31.8372 5.55835 32.152 5.55835 32.5402C5.55835 32.9284 5.87307 33.2432 6.26138 33.2432H24.26C24.6483 33.2432 24.963 32.9285 24.963 32.5402Z" fill="white"/>
<path d="M6.26138 39.0771C5.87307 39.0771 5.55835 39.392 5.55835 39.7802C5.55835 40.1684 5.87307 40.4832 6.26138 40.4832H15.2837C15.672 40.4832 15.9867 40.1684 15.9867 39.7802C15.9867 39.392 15.672 39.0771 15.2837 39.0771H6.26138Z" fill="white"/>
<path d="M32.3619 8.70497V6.42366C32.3619 5.5546 31.6549 4.84753 30.7858 4.84753H16.3514C15.4823 4.84753 14.7753 5.5546 14.7753 6.42366V8.70497C14.7753 9.57403 15.4823 10.281 16.3514 10.281H17.5703C17.9586 10.281 18.2733 9.96619 18.2733 9.57797C18.2733 9.18966 17.9586 8.87494 17.5703 8.87494H16.3514C16.2577 8.87494 16.1815 8.79872 16.1815 8.70507V6.42366C16.1815 6.33 16.2577 6.25369 16.3514 6.25369H30.7858C30.8795 6.25369 30.9557 6.32991 30.9557 6.42366V8.70497C30.9557 8.79863 30.8795 8.87485 30.7858 8.87485H17.5819C17.1936 8.87485 16.8788 9.18966 16.8788 9.57788C16.8788 9.96619 17.1936 10.2809 17.5819 10.2809H30.7859C31.6549 10.2811 32.3619 9.57403 32.3619 8.70497Z" fill="white"/>
<path d="M37.6188 40.5C37.2305 40.5 36.9158 40.8148 36.9158 41.203V44.5213C36.9158 45.664 35.9861 46.5938 34.8432 46.5938H3.7405C2.59778 46.5938 1.66796 45.6641 1.66796 44.5213V10.7276C1.66796 10.5755 1.68578 10.4262 1.71756 10.281H8.11909C9.45559 10.281 10.5429 9.19369 10.5429 7.85719V1.45575C10.6881 1.42397 10.8373 1.40616 10.9894 1.40616H34.8431C35.9859 1.40616 36.9157 2.33587 36.9157 3.47869V15.797C36.9157 16.1853 37.2304 16.5 37.6187 16.5C38.0071 16.5 38.3218 16.1852 38.3218 15.797V3.47859C38.3219 1.56056 36.7613 0 34.8432 0H10.9895C10.0604 0 9.18671 0.361875 8.52971 1.01888L1.28068 8.26791C0.623683 8.92491 0.261902 9.79847 0.261902 10.7277V44.5214C0.261902 46.4395 1.82237 48 3.7405 48H34.8432C36.7613 48 38.3219 46.4394 38.3219 44.5214V41.2031C38.3219 40.8148 38.0072 40.5 37.6188 40.5ZM9.13684 2.40037V7.85719C9.13684 8.41838 8.68028 8.87494 8.11909 8.87494H2.66228L9.13684 2.40037Z" fill="white"/>
<path d="M47.2483 25.125C47.7418 24.4006 47.8694 23.5071 47.5986 22.6735C47.3278 21.8399 46.6992 21.192 45.8742 20.8962C45.3269 20.6999 44.9617 20.1974 44.9443 19.6161C44.9177 18.74 44.4958 17.942 43.7865 17.4268C43.0775 16.9116 42.188 16.757 41.3469 17.0024C40.7883 17.1654 40.198 16.9734 39.8421 16.5135C39.3058 15.8203 38.4954 15.4227 37.6188 15.4227C36.7424 15.4227 35.9319 15.8203 35.3955 16.5135C35.0396 16.9735 34.4489 17.1652 33.8908 17.0024C33.0496 16.7568 32.1601 16.9116 31.4509 17.4268C30.7418 17.942 30.32 18.7399 30.2934 19.616C30.2759 20.1973 29.9108 20.6997 29.3634 20.8961C28.5384 21.1919 27.9098 21.8399 27.6391 22.6734C27.3682 23.507 27.4959 24.4006 27.9894 25.1249C28.3168 25.6056 28.3168 26.2266 27.9894 26.7072C27.4959 27.4316 27.3682 28.3251 27.6391 29.1587C27.9098 29.9924 28.5384 30.6402 29.3634 30.9361C29.9108 31.1325 30.276 31.6349 30.2934 32.2162C30.3179 33.0221 30.6871 33.7793 31.3068 34.2935C31.7157 34.6329 32.2068 34.8452 32.7209 34.9162V41.3173C32.7209 41.8574 33.0138 42.3566 33.4853 42.6199C33.9562 42.8831 34.5351 42.8714 34.9953 42.5879L37.5739 41.0006C37.6159 40.9746 37.641 40.9863 37.6641 41.0006L40.2425 42.5879C40.7025 42.8711 41.2813 42.8833 41.7526 42.6198C42.2242 42.3564 42.5171 41.8572 42.5171 41.3172V34.916C43.0309 34.8451 43.5221 34.6328 43.9309 34.2935C44.5507 33.7793 44.9201 33.0222 44.9445 32.2161C44.962 31.6349 45.3271 31.1324 45.8745 30.936C46.6995 30.6402 47.3281 29.9923 47.5989 29.1586C47.8697 28.325 47.742 27.4315 47.2485 26.7071C46.9208 26.2267 46.9208 25.6057 47.2483 25.125ZM40.9795 41.3906L38.401 39.8032C37.9216 39.5082 37.3164 39.5077 36.8366 39.8032L34.2581 41.3905C34.1994 41.4262 34.1269 41.385 34.1269 41.3172V34.7827C34.6103 34.7267 35.0896 34.9234 35.3955 35.3188C35.932 36.0119 36.7424 36.4095 37.6189 36.4095C38.4954 36.4095 39.3058 36.0119 39.8421 35.3188C40.1481 34.9233 40.6275 34.7267 41.1107 34.7827V41.3172C41.1107 41.3855 41.0373 41.4263 40.9795 41.3906ZM46.0862 27.4991C46.333 27.8611 46.3967 28.3077 46.2614 28.7243C46.126 29.1409 45.8118 29.4647 45.3994 29.6127C44.3042 30.0055 43.5739 31.0108 43.5388 32.1737C43.5263 32.5826 43.3466 32.9511 43.0328 33.2115C42.68 33.5043 42.2023 33.6148 41.7408 33.4801C40.624 33.1543 39.4421 33.5383 38.73 34.4583C38.4619 34.8047 38.0568 35.0035 37.6187 35.0035C37.1807 35.0035 36.7756 34.8048 36.5074 34.4583C35.9638 33.7556 35.1462 33.3656 34.2928 33.3656C34.0286 33.3656 33.7608 33.403 33.4968 33.48C33.0309 33.6158 32.5546 33.502 32.2046 33.2114C31.8908 32.951 31.7111 32.5825 31.6988 32.1737C31.6636 31.0108 30.9332 30.0055 29.838 29.6126C29.4257 29.4646 29.1116 29.1409 28.9761 28.7243C28.8407 28.3077 28.9045 27.861 29.1512 27.499C29.8063 26.5374 29.8063 25.2949 29.1512 24.3333C28.9045 23.9713 28.8407 23.5246 28.9761 23.1079C29.1115 22.6913 29.4257 22.3675 29.838 22.2196C30.9332 21.8267 31.6636 20.8214 31.6988 19.6585C31.712 19.2206 31.9228 18.8218 32.2772 18.5643C32.6315 18.3068 33.0759 18.2295 33.4967 18.3522C34.6133 18.6781 35.7955 18.294 36.5074 17.374C36.7755 17.0275 37.1805 16.8287 37.6187 16.8287C38.0568 16.8287 38.4618 17.0274 38.73 17.3739C39.442 18.294 40.6236 18.678 41.7407 18.3522C42.1613 18.2294 42.6057 18.3067 42.9601 18.5642C43.3146 18.8217 43.5255 19.2206 43.5387 19.6584C43.5739 20.8214 44.3042 21.8267 45.3994 22.2195C45.8118 22.3674 46.1259 22.6912 46.2614 23.1078C46.3967 23.5244 46.333 23.9712 46.0862 24.3331C45.431 25.2948 45.431 26.5375 46.0862 27.4991Z" fill="white"/>
<path d="M37.6188 20.0234C34.3696 20.0234 31.7263 22.6667 31.7263 25.9159C31.7263 29.1651 34.3696 31.8085 37.6188 31.8085C40.8679 31.8085 43.5113 29.1651 43.5113 25.9159C43.5113 22.6667 40.8679 20.0234 37.6188 20.0234ZM37.6188 30.4024C35.1449 30.4024 33.1323 28.3898 33.1323 25.916C33.1323 23.4422 35.1449 21.4295 37.6188 21.4295C40.0927 21.4295 42.1052 23.4422 42.1052 25.916C42.1052 28.3899 40.0926 30.4024 37.6188 30.4024Z" fill="white"/>
</svg>
