<svg width="24" height="25" viewBox="0 0 24 25" fill="none" xmlns="http://www.w3.org/2000/svg">
<circle cx="12" cy="12.5" r="11.5" fill="white" stroke="#E27410"/>
<path d="M16.0975 15.8909H7.90253C7.63616 15.8906 7.38079 15.7846 7.19244 15.5963C7.0041 15.4079 6.89817 15.1525 6.89789 14.8862V9.82505C6.89817 9.55868 7.0041 9.3033 7.19244 9.11494C7.38079 8.92657 7.63616 8.82062 7.90253 8.82031H16.0975C16.3638 8.82062 16.6192 8.92657 16.8076 9.11494C16.9959 9.3033 17.1018 9.55868 17.1021 9.82505V14.8862C17.1018 15.1525 16.9959 15.4079 16.8076 15.5963C16.6192 15.7846 16.3638 15.8906 16.0975 15.8909ZM7.90253 9.20431C7.73796 9.20449 7.58019 9.26995 7.46383 9.38632C7.34748 9.5027 7.28204 9.66048 7.28189 9.82505V14.8862C7.28204 15.0507 7.34748 15.2085 7.46383 15.3249C7.58019 15.4413 7.73796 15.5067 7.90253 15.5069H16.0975C16.262 15.5067 16.4198 15.4413 16.5362 15.3249C16.6525 15.2085 16.718 15.0507 16.7181 14.8862V9.82505C16.718 9.66048 16.6525 9.5027 16.5362 9.38632C16.4198 9.26995 16.262 9.20449 16.0975 9.20431H7.90253Z" fill="#E27410"/>
<path d="M12 13.4856C11.9532 13.4856 11.908 13.4685 11.8729 13.4376L7.24567 9.35294L7.49978 9.06494L12 13.0378L16.5004 9.06542L16.7545 9.35342L12.1273 13.438C12.0921 13.4689 12.0468 13.4858 12 13.4856Z" fill="#E27410"/>
<path d="M7.14124 15.2881L10.2497 11.7463L10.5385 11.9997L7.43 15.5415L7.14124 15.2881Z" fill="#E27410"/>
<path d="M13.4713 11.9961L13.76 11.7427L16.8686 15.2845L16.5798 15.538L13.4713 11.9961Z" fill="#E27410"/>
</svg>
