<svg width="24" height="24" viewBox="0 0 24 24" fill="none" xmlns="http://www.w3.org/2000/svg">
<path d="M24 10.4495H22.713C22.0631 8.52033 20.2407 7.12526 18.0952 7.12526C15.9002 7.12526 14.041 8.58421 13.4323 10.5828C13.0473 10.3283 12.5535 10.1707 11.9997 10.1707C11.4461 10.1707 10.9524 10.3283 10.5673 10.5828C9.95852 8.58416 8.09896 7.12531 5.90404 7.12531C3.75858 7.12531 1.93624 8.52038 1.28649 10.4496H0V11.4495H1.0626C1.04213 11.6306 1.02929 11.8139 1.02929 12.0003C1.02929 14.6883 3.21608 16.8748 5.90404 16.8748C8.59199 16.8748 10.779 14.6883 10.779 12.0003C10.779 11.9723 10.7753 11.9452 10.7748 11.9173H10.7783C10.7783 11.5643 11.28 11.1707 11.9998 11.1707C12.7197 11.1707 13.2212 11.5643 13.2212 11.9173H13.2249C13.2244 11.9452 13.2207 11.9723 13.2207 12.0003C13.2207 14.6883 15.4072 16.8748 18.0952 16.8748C20.7832 16.8748 22.9702 14.6883 22.9702 12.0003C22.9702 11.8139 22.9574 11.6306 22.9369 11.4495H24V10.4495ZM5.90404 15.8748C3.76757 15.8748 2.02927 14.1365 2.02927 12.0003C2.02927 9.86359 3.76757 8.1253 5.90404 8.1253C8.04076 8.1253 9.77905 9.86359 9.77905 12.0003C9.77905 14.1365 8.04076 15.8748 5.90404 15.8748ZM18.0953 15.8748C15.959 15.8748 14.2207 14.1365 14.2207 12.0003C14.2207 9.86359 15.959 8.1253 18.0953 8.1253C20.232 8.1253 21.9703 9.86359 21.9703 12.0003C21.9702 14.1365 20.2319 15.8748 18.0953 15.8748Z" fill="#E27410"/>
</svg>
