<svg width="24" height="25" viewBox="0 0 24 25" fill="none" xmlns="http://www.w3.org/2000/svg">
<circle cx="12" cy="12.5" r="11.5" fill="white" stroke="#E27410"/>
<g clip-path="url(#clip0_33_658)">
<path d="M8.44527 14.4768C9.62886 15.8916 11.0536 17.0056 12.6798 17.7938C13.299 18.0872 14.127 18.4353 15.0495 18.495C15.1067 18.4975 15.1614 18.5 15.2186 18.5C15.8377 18.5 16.335 18.2862 16.7403 17.846C16.7428 17.8436 16.7478 17.8386 16.7503 17.8336C16.8945 17.6596 17.0586 17.5029 17.2302 17.3363C17.347 17.2244 17.4664 17.1075 17.5808 16.9882C18.1104 16.4362 18.1104 15.735 17.5758 15.2004L16.0814 13.706C15.8278 13.4424 15.5244 13.3031 15.2061 13.3031C14.8879 13.3031 14.582 13.4424 14.3209 13.7035L13.4308 14.5937C13.3487 14.5464 13.2642 14.5041 13.1846 14.4644C13.0851 14.4146 12.9931 14.3674 12.9111 14.3152C12.1005 13.8005 11.3645 13.1291 10.6608 12.2663C10.3052 11.8162 10.0665 11.4383 9.89989 11.0528C10.1336 10.8415 10.3524 10.6202 10.5638 10.4039C10.6384 10.3268 10.7155 10.2497 10.7926 10.1726C11.0611 9.90406 11.2053 9.59324 11.2053 9.27746C11.2053 8.96167 11.0636 8.65085 10.7926 8.3823L10.0516 7.64132C9.96454 7.55429 9.88248 7.46975 9.79794 7.38272C9.63383 7.21363 9.46226 7.03958 9.29317 6.88293C9.03706 6.63179 8.73619 6.5 8.41792 6.5C8.10213 6.5 7.79877 6.63179 7.53271 6.88541L6.60275 7.81538C6.26458 8.15354 6.07312 8.56382 6.03333 9.03875C5.98609 9.63303 6.0955 10.2646 6.37896 11.028C6.8141 12.2091 7.47055 13.3056 8.44527 14.4768ZM6.64005 9.09097C6.66988 8.76026 6.7967 8.48425 7.0354 8.24554L7.96039 7.32056C8.10461 7.18131 8.26375 7.1092 8.41792 7.1092C8.56959 7.1092 8.72376 7.18131 8.86549 7.32553C9.03209 7.47969 9.18874 7.64132 9.35782 7.81289C9.44237 7.89992 9.5294 7.98695 9.61642 8.07646L10.3574 8.81745C10.5116 8.97161 10.5911 9.12826 10.5911 9.28243C10.5911 9.43659 10.5116 9.59325 10.3574 9.74741C10.2803 9.82449 10.2032 9.90406 10.1262 9.98114C9.89492 10.2149 9.67859 10.4362 9.43988 10.6475C9.43491 10.6525 9.43242 10.655 9.42745 10.66C9.22107 10.8663 9.25339 11.0628 9.30312 11.212C9.30561 11.2194 9.30809 11.2244 9.31058 11.2319C9.50204 11.6919 9.7681 12.1295 10.1834 12.6517C10.9293 13.5717 11.7151 14.2853 12.5804 14.8349C12.6873 14.9045 12.8017 14.9592 12.9086 15.0139C13.0081 15.0636 13.1001 15.1109 13.1821 15.1631C13.1921 15.168 13.1995 15.173 13.2095 15.178C13.2915 15.2203 13.3711 15.2402 13.4507 15.2402C13.6496 15.2402 13.7789 15.1133 13.8211 15.0711L14.7511 14.1411C14.8953 13.9969 15.052 13.9198 15.2061 13.9198C15.3951 13.9198 15.5493 14.0367 15.6463 14.1411L17.1456 15.638C17.444 15.9364 17.4415 16.2596 17.1382 16.5754C17.0337 16.6873 16.9243 16.7942 16.8075 16.9061C16.6334 17.0752 16.4519 17.2493 16.2878 17.4457C16.0018 17.754 15.6612 17.8983 15.2211 17.8983C15.1788 17.8983 15.134 17.8958 15.0918 17.8933C14.2762 17.8411 13.5178 17.5228 12.9484 17.2518C11.4018 16.5033 10.0441 15.4416 8.91771 14.0939C7.99023 12.9774 7.36611 11.938 6.95335 10.8241C6.69724 10.1403 6.60026 9.59076 6.64005 9.09097Z" fill="#E27410"/>
</g>
<defs>
<clipPath id="clip0_33_658">
<rect width="12" height="12" fill="white" transform="translate(6 6.5)"/>
</clipPath>
</defs>
</svg>
