<svg width="66" height="80" viewBox="0 0 66 80" fill="none" xmlns="http://www.w3.org/2000/svg">
<path d="M39.25 36.25C38.3875 36.25 37.6875 36.95 37.6875 37.8125C37.6875 38.675 38.3875 39.375 39.25 39.375C40.1125 39.375 40.8125 38.675 40.8125 37.8125C40.8125 36.95 40.1125 36.25 39.25 36.25Z" fill="white"/>
<path d="M33 26.875C32.1375 26.875 31.4375 27.575 31.4375 28.4375C31.4375 29.3 32.1375 30 33 30C33.8625 30 34.5625 29.3 34.5625 28.4375C34.5625 27.575 33.8625 26.875 33 26.875Z" fill="white"/>
<path d="M14.25 67.5C13.3875 67.5 12.6875 68.2 12.6875 69.0625C12.6875 69.925 13.3875 70.625 14.25 70.625C15.1125 70.625 15.8125 69.925 15.8125 69.0625C15.8125 68.2 15.1125 67.5 14.25 67.5Z" fill="white"/>
<path d="M64.0025 63.6997L43.9375 28.0283V9.10719C45.7564 8.46234 47.0625 6.72469 47.0625 4.6875C47.0625 2.10281 44.9597 0 42.375 0H23.625C21.0403 0 18.9375 2.10281 18.9375 4.6875C18.9375 6.72469 20.2436 8.46234 22.0625 9.10719V28.0283L1.99749 63.6997C0.0712369 67.1241 0.105456 71.1933 2.08874 74.5845C4.07186 77.9755 7.60124 80 11.5297 80H54.4703C58.3987 80 61.928 77.9755 63.9112 74.5845C65.8945 71.1933 65.9287 67.1241 64.0025 63.6997ZM24.9869 29.2034C25.1184 28.9697 25.1875 28.7058 25.1875 28.4375V9.375H26.75C27.6128 9.375 28.3125 8.67531 28.3125 7.8125C28.3125 6.94969 27.6128 6.25 26.75 6.25H23.625C22.7634 6.25 22.0625 5.54906 22.0625 4.6875C22.0625 3.82594 22.7634 3.125 23.625 3.125H42.375C43.2365 3.125 43.9375 3.82594 43.9375 4.6875C43.9375 5.54906 43.2365 6.25 42.375 6.25H39.25C38.3872 6.25 37.6875 6.94969 37.6875 7.8125C37.6875 8.67531 38.3872 9.375 39.25 9.375H40.8125V28.4375C40.8125 28.7059 40.8815 28.9695 41.0131 29.2034L50.2226 45.5764C44.5984 45.1209 38.9937 46.2584 33.8444 48.9248C27.2247 52.3505 19.8555 52.9536 12.9069 50.6791L24.9869 29.2034ZM61.2136 73.0069C59.7972 75.4289 57.2762 76.875 54.4703 76.875H11.5297C8.72374 76.875 6.2028 75.4289 4.78639 73.0069C3.36967 70.5845 3.34514 67.6778 4.72124 65.2316L11.3475 53.4516C14.5625 54.5742 17.885 55.1409 21.2595 55.1409C21.759 55.1409 22.2598 55.1286 22.7615 55.1038C27.1217 54.8878 31.3337 53.7427 35.2809 51.7C40.5609 48.9663 46.3683 48.0225 52.122 48.953L61.2789 65.2316C62.6548 67.6778 62.6305 70.5845 61.2136 73.0069Z" fill="white"/>
<path d="M26.75 36.25C24.1653 36.25 22.0625 38.3528 22.0625 40.9375C22.0625 43.5222 24.1653 45.625 26.75 45.625C29.3347 45.625 31.4375 43.5222 31.4375 40.9375C31.4375 38.3528 29.3347 36.25 26.75 36.25ZM26.75 42.5C25.8884 42.5 25.1875 41.7991 25.1875 40.9375C25.1875 40.0759 25.8884 39.375 26.75 39.375C27.6116 39.375 28.3125 40.0759 28.3125 40.9375C28.3125 41.7991 27.6116 42.5 26.75 42.5Z" fill="white"/>
<path d="M51.75 67.5H20.5C19.6372 67.5 18.9375 68.1997 18.9375 69.0625C18.9375 69.9253 19.6372 70.625 20.5 70.625H51.75C52.6128 70.625 53.3125 69.9253 53.3125 69.0625C53.3125 68.1997 52.6128 67.5 51.75 67.5Z" fill="white"/>
</svg>
