<svg width="74" height="80" viewBox="0 0 74 80" fill="none" xmlns="http://www.w3.org/2000/svg">
<path d="M34.3332 40.0003H39.6665C40.4029 40.0003 40.9999 39.4033 40.9999 38.667C40.9999 37.9306 40.4029 37.3336 39.6665 37.3336H34.3332C33.5968 37.3336 32.9999 37.9306 32.9999 38.667C32.9999 39.4033 33.5968 40.0003 34.3332 40.0003Z" fill="white"/>
<path d="M38.3333 41.3335H35.6666C34.9302 41.3335 34.3333 41.9304 34.3333 42.6668C34.3333 43.4032 34.9302 44.0002 35.6666 44.0002H38.3333C39.0696 44.0002 39.6666 43.4032 39.6666 42.6668C39.6666 41.9304 39.0696 41.3335 38.3333 41.3335Z" fill="white"/>
<path d="M35.6666 34.6669H38.3333C39.0696 34.6669 39.6666 34.07 39.6666 33.3336C39.6666 32.5972 39.0696 32.0002 38.3333 32.0002H35.6666C34.9302 32.0002 34.3333 32.5972 34.3333 33.3336C34.3333 34.07 34.9302 34.6669 35.6666 34.6669Z" fill="white"/>
<path d="M6.69325 59.0563C3.04792 62.699 1.26659 72.119 0.999921 77.2003C0.963373 77.9303 1.2281 78.6434 1.73222 79.1727C2.23633 79.702 2.93562 80.0012 3.66659 80.0003H70.3333C71.0642 80.0012 71.7635 79.702 72.2676 79.1727C72.7717 78.6434 73.0365 77.9303 72.9999 77.2003C72.7333 72.1176 70.9559 62.6976 67.3106 59.055C63.5493 55.299 51.5919 51.7216 48.6613 50.8923C47.8308 48.7657 47.3852 46.5083 47.3453 44.2256L50.7266 41.267C52.1729 39.9998 53.0016 38.1698 52.9999 36.2469V34.5336C56.099 33.901 58.3269 31.1779 58.3333 28.0149C58.3273 27.732 58.3037 27.4496 58.2626 27.1696L62.3959 25.5229C62.9315 25.3099 63.3501 24.8774 63.5457 24.3352C63.7412 23.7929 63.695 23.1928 63.4186 22.6869C62.4037 20.8264 61.0334 19.1833 59.3853 17.851L61.0706 17.4256C62.0399 17.1848 62.6754 16.2564 62.5493 15.2656C62.1564 13.1193 60.7431 11.2986 58.7613 10.3856L60.2493 9.39495C61.0266 8.86118 61.3301 7.85983 60.9799 6.98428C57.7226 -0.878384 45.6053 1.00828 43.8786 1.32162C39.4814 -0.428626 34.583 -0.440543 30.1773 1.28828C27.6426 0.868283 16.3973 -0.541051 13.2866 6.98695C12.9374 7.8691 13.2491 8.87541 14.0359 9.40562L15.5146 10.3843C13.5253 11.2963 12.1074 13.123 11.7173 15.2763C11.6039 16.27 12.2489 17.1924 13.2213 17.427L14.8866 17.847C13.2324 19.1845 11.857 20.8339 10.8386 22.7016C10.5694 23.2064 10.5276 23.8018 10.7234 24.3393C10.9193 24.8768 11.3344 25.3057 11.8653 25.5189L15.7466 27.0669C15.697 27.3801 15.6702 27.6965 15.6666 28.0136C15.6723 31.1771 17.9004 33.9009 20.9999 34.5336V36.2483C21.0001 38.1709 21.8302 39.9998 23.2773 41.2656L26.6586 44.2243C26.6187 46.507 26.1731 48.7643 25.3426 50.891C22.4119 51.7336 10.4546 55.3003 6.69325 59.0563ZM42.2186 77.3336L41.0373 64.3456L42.0253 62.863C43.0779 63.7094 44.5996 63.6249 45.5519 62.667L50.2746 57.9456L52.7973 61.4776L45.4786 77.3336H42.2186ZM28.5226 77.3336L21.2026 61.4669L23.7253 57.935L28.4479 62.667C29.4045 63.6143 30.9171 63.7001 31.9746 62.867L32.9626 64.3483L31.7813 77.3336H28.5226ZM38.9533 62.667H35.0466L33.9159 60.9696L36.9999 57.8856L40.0839 60.9696L38.9533 62.667ZM35.5506 65.3336H38.4493L39.5399 77.3336H34.4666L35.5506 65.3336ZM47.5079 54.0723L48.7079 55.7456L43.6666 60.7816L40.0213 57.1363C42.7597 56.8567 45.3592 55.7928 47.5079 54.0723ZM30.3333 60.7816L25.2973 55.7456L26.4973 54.0723C28.6456 55.7938 31.2452 56.8586 33.9839 57.139L30.3333 60.7816ZM3.66659 77.3416C3.97059 71.511 5.93325 63.5843 8.57725 60.9416C10.9479 58.5723 18.0319 55.959 22.9893 54.3843L19.0333 59.9243C18.4761 60.7032 18.3794 61.7211 18.7799 62.591L25.5853 77.3336H19.6666V74.667C19.6666 73.9306 19.0696 73.3336 18.3333 73.3336C17.5969 73.3336 16.9999 73.9306 16.9999 74.667V77.3403L3.66659 77.3416ZM70.3333 77.3336H56.9999V74.667C56.9999 73.9306 56.403 73.3336 55.6666 73.3336C54.9302 73.3336 54.3333 73.9306 54.3333 74.667V77.3336H48.4159L55.2159 62.5936C55.6172 61.7242 55.5215 60.7064 54.9653 59.927L51.0106 54.387C55.9679 55.9616 63.0519 58.575 65.4226 60.9443C68.0666 63.5843 70.0293 71.511 70.3333 77.3336ZM58.2786 7.50028L56.3053 8.81628C55.6939 9.22538 55.3565 9.93704 55.4267 10.6693C55.4969 11.4015 55.9634 12.0361 56.6413 12.3216C57.98 12.7892 59.0897 13.7502 59.7439 15.0083L57.3653 15.6083C56.5764 15.7913 55.9758 16.4319 55.8439 17.231C55.7102 18.0175 56.0639 18.8071 56.7399 19.231C58.3514 20.2795 59.7055 21.6783 60.7013 23.323L57.3999 24.6403C56.6907 23.4327 55.6171 22.481 54.3333 21.9216V16.0003C54.2801 11.0822 51.9019 6.47964 47.9213 3.59095C51.4293 3.46695 56.4106 3.97495 58.2786 7.50028ZM51.6666 16.0003V21.6256L47.5013 22.667H40.9999C40.3472 22.6692 39.7184 22.9129 39.2346 23.351C37.8844 22.4388 36.1154 22.4388 34.7653 23.351C34.2814 22.9129 33.6526 22.6692 32.9999 22.667H26.4986L22.3333 21.6256V16.0003C22.3541 12.4094 23.8982 8.99619 26.5813 6.60962C29.4371 4.03572 33.1556 2.62856 36.9999 2.66695C45.0866 2.66695 51.6666 8.64828 51.6666 16.0003ZM47.6666 25.3336V28.0003C47.6666 28.7367 47.0696 29.3336 46.3333 29.3336H42.3333C41.5969 29.3336 40.9999 28.7367 40.9999 28.0003V25.3336H47.6666ZM26.3333 25.3336H32.9999V28.0003C32.9999 28.7367 32.403 29.3336 31.6666 29.3336H27.6666C26.9302 29.3336 26.3333 28.7367 26.3333 28.0003V25.3336ZM13.5653 23.3256C14.5586 21.6839 15.9094 20.2875 17.5173 19.2403C18.1911 18.8127 18.5463 18.0253 18.4208 17.2372C18.2953 16.449 17.7133 15.8108 16.9399 15.6136L14.5173 15.003C15.1831 13.7354 16.3106 12.7721 17.6666 12.3123C18.3285 12.0178 18.7793 11.3884 18.8453 10.667C18.9132 9.93068 18.5756 9.21565 17.9639 8.80028L15.9893 7.49228C17.8039 4.06562 22.5599 3.49228 26.0479 3.58028C25.6088 3.91095 25.1857 4.26295 24.7786 4.63628C21.5399 7.52777 19.6817 11.6587 19.6666 16.0003V21.9216C18.4146 22.4684 17.3628 23.3898 16.6559 24.559L13.5653 23.3256ZM23.6666 36.2469V33.3336C23.6666 32.5972 23.0696 32.0003 22.3333 32.0003C20.1293 32.0003 18.3406 30.2175 18.3333 28.0136C18.3339 27.5856 18.4041 27.1605 18.5413 26.7549C18.5413 26.7443 18.5413 26.7336 18.5413 26.7243C18.9767 25.4574 20.0215 24.4953 21.3199 24.1656C21.3373 24.1656 21.3506 24.1483 21.3679 24.143L23.6666 24.7083V28.0003C23.6666 30.2094 25.4574 32.0003 27.6666 32.0003H31.6666C33.8757 32.0003 35.6666 30.2094 35.6666 28.0003V26.667C35.6666 25.9306 36.2635 25.3336 36.9999 25.3336C37.7363 25.3336 38.3333 25.9306 38.3333 26.667V28.0003C38.3333 30.2094 40.1241 32.0003 42.3333 32.0003H46.3333C48.5424 32.0003 50.3333 30.2094 50.3333 28.0003V24.7083L52.6226 24.1363C52.6399 24.1363 52.6533 24.1549 52.6706 24.1589C54.6189 24.6567 55.8905 26.5288 55.6351 28.5235C55.3797 30.5181 53.6775 32.0094 51.6666 32.0003C50.9302 32.0003 50.3333 32.5972 50.3333 33.3336V36.2469C50.3332 37.4006 49.835 38.4981 48.9666 39.2576L41.6333 45.6776C40.9042 46.3154 39.9685 46.6669 38.9999 46.667H34.9999C34.0313 46.6669 33.0956 46.3154 32.3666 45.6776L25.0333 39.2576C24.1648 38.4981 23.6667 37.4006 23.6666 36.2469ZM30.6133 47.6843C31.8277 48.7468 33.3863 49.3328 34.9999 49.3336H38.9999C40.6149 49.3338 42.1751 48.7477 43.3906 47.6843L44.8253 46.4283C45.0249 48.2517 45.4611 50.0414 46.1226 51.7523C45.1439 52.707 42.4773 54.667 36.9999 54.667C31.5226 54.667 28.8466 52.7003 27.8813 51.7536C28.5428 50.0423 28.9789 48.2521 29.1786 46.4283L30.6133 47.6843Z" fill="white"/>
<path d="M32.9999 17.3336H26.3333C25.5969 17.3336 24.9999 17.9306 24.9999 18.667C24.9999 19.4033 25.5969 20.0003 26.3333 20.0003H32.9999C33.7363 20.0003 34.3333 19.4033 34.3333 18.667C34.3333 17.9306 33.7363 17.3336 32.9999 17.3336Z" fill="white"/>
<path d="M39.6666 18.667C39.6666 19.4033 40.2635 20.0003 40.9999 20.0003H47.6666C48.4029 20.0003 48.9999 19.4033 48.9999 18.667C48.9999 17.9306 48.4029 17.3336 47.6666 17.3336H40.9999C40.2635 17.3336 39.6666 17.9306 39.6666 18.667Z" fill="white"/>
<path d="M32.9999 13.3334H40.9999C41.7363 13.3334 42.3332 12.7365 42.3332 12.0001C42.3332 11.2637 41.7363 10.6667 40.9999 10.6667H32.9999C32.2635 10.6667 31.6666 11.2637 31.6666 12.0001C31.6666 12.7365 32.2635 13.3334 32.9999 13.3334Z" fill="white"/>
<path d="M32.9999 9.33354H35.6666C36.4029 9.33354 36.9999 8.73658 36.9999 8.0002C36.9999 7.26382 36.4029 6.66687 35.6666 6.66687H32.9999C32.2635 6.66687 31.6666 7.26382 31.6666 8.0002C31.6666 8.73658 32.2635 9.33354 32.9999 9.33354Z" fill="white"/>
</svg>
