<svg width="160" height="160" viewBox="0 0 160 160" fill="none" xmlns="http://www.w3.org/2000/svg">
<g clip-path="url(#clip0_33_725)">
<path d="M115.37 64.0004H112.001C110.606 64.0004 109.475 65.1313 109.475 66.5266C109.475 67.9219 110.606 69.0529 112.001 69.0529H115.37C116.765 69.0529 117.896 67.9219 117.896 66.5266C117.896 65.1313 116.765 64.0004 115.37 64.0004Z" fill="white"/>
<path d="M97.6858 80C97.6858 78.6044 96.5552 77.4738 95.1596 77.4738H41.2646C39.869 77.4738 38.7383 78.6047 38.7383 80C38.7383 81.3956 39.869 82.5262 41.2646 82.5262H95.1593C96.5546 82.5262 97.6858 81.3956 97.6858 80Z" fill="white"/>
<path d="M41.2646 128C39.869 128 38.7383 129.131 38.7383 130.526C38.7383 131.921 39.869 133.052 41.2646 133.052H54.7383C56.134 133.052 57.2646 131.921 57.2646 130.526C57.2646 129.131 56.134 128 54.7383 128H41.2646Z" fill="white"/>
<path fill-rule="evenodd" clip-rule="evenodd" d="M107.96 136.084C109.699 138.405 112.47 139.79 115.37 139.79C118.27 139.79 121.041 138.405 122.781 136.084L136.422 117.896L141.475 111.159L158.149 88.9266C161.214 84.8406 160.383 79.0231 156.296 75.9578C152.21 72.8937 146.392 73.7247 143.328 77.8109L141.475 80.2816V9.26313C141.475 4.15563 137.319 0 132.212 0H24.4231C19.315 0 15.1597 4.15563 15.1597 9.26313V10.1053H9.26502C4.1572 10.1053 0.00189209 14.2609 0.00189209 19.3684V140.632C0.00189209 145.739 4.1572 149.895 9.26502 149.895H15.1597V150.737C15.1597 155.844 19.315 160 24.4228 160H132.212C137.319 160 141.475 155.844 141.475 150.737V111.159L136.422 117.896V150.737C136.422 153.059 134.533 154.947 132.212 154.947H24.4231C22.1013 154.947 20.2125 153.059 20.2125 150.737V33.5262C20.2125 33.4098 20.2046 33.2952 20.1894 33.1829C20.0229 34.4169 18.9656 35.3681 17.686 35.3681C16.4071 35.3681 15.3503 34.4183 15.1828 33.1852C15.1678 33.2968 15.16 33.4106 15.16 33.5262V144.842H9.26502C6.94314 144.842 5.05439 142.953 5.05439 140.632V19.3684C5.05439 17.0466 6.94314 15.1578 9.26502 15.1578H15.1597V32.8419C15.1597 32.9583 15.1676 33.073 15.1828 33.1852C15.3493 31.9512 16.4066 31 17.6863 31C18.9651 31 20.0219 31.9498 20.1894 33.1829C20.2044 33.0714 20.2122 32.9575 20.2122 32.8419V9.26313C20.2122 6.94125 22.101 5.0525 24.4228 5.0525H132.212C134.533 5.0525 136.422 6.94125 136.422 9.26313V86.7369C136.422 86.8259 136.427 86.9134 136.436 87.0003L115.37 115.088L107.623 104.758C106.139 102.778 103.972 101.496 101.523 101.146C99.0719 100.796 96.6334 101.421 94.6547 102.906C92.675 104.39 91.3922 106.557 91.0425 109.006C90.6925 111.456 91.3178 113.895 92.8022 115.874L107.96 136.084ZM97.6866 106.947C96.7866 107.623 96.2034 108.608 96.0441 109.721C95.885 110.834 96.1691 111.943 96.8441 112.842L112.002 133.053C112.793 134.107 114.052 134.737 115.37 134.737C116.688 134.737 117.948 134.107 118.738 133.053L154.107 85.895C155.5 84.0378 155.122 81.3934 153.265 80.0003C151.407 78.6075 148.763 78.9847 147.37 80.8425L117.391 120.815C116.914 121.451 116.165 121.825 115.37 121.825C114.575 121.825 113.826 121.451 113.349 120.815L103.581 107.79C102.906 106.89 101.921 106.307 100.808 106.148C100.606 106.119 100.404 106.105 100.203 106.105C99.2991 106.105 98.4228 106.395 97.6866 106.947Z" fill="white"/>
<path d="M17.686 35.3681C18.9656 35.3681 20.0229 34.4169 20.1894 33.1829C20.0219 31.9498 18.9651 31 17.6863 31C16.4066 31 15.3493 31.9512 15.1828 33.1852C15.3503 34.4183 16.4071 35.3681 17.686 35.3681Z" fill="white"/>
<path d="M80.8437 117.053C80.8437 115.657 79.7131 114.526 78.3174 114.526H41.2646C39.869 114.526 38.7383 115.657 38.7383 117.053C38.7383 118.448 39.869 119.579 41.2646 119.579H78.3171C79.7124 119.579 80.8437 118.448 80.8437 117.053Z" fill="white"/>
<path d="M59.7909 43.7894C58.3953 43.7894 57.2646 44.9201 57.2646 46.3157C57.2646 47.7113 58.3953 48.8419 59.7909 48.8419H96.8437C98.2394 48.8419 99.37 47.7113 99.37 46.3157C99.37 44.9201 98.2394 43.7894 96.8437 43.7894H59.7909Z" fill="white"/>
<path d="M41.2646 69.0529H95.1593C96.5549 69.0529 97.6856 67.9219 97.6856 66.5266C97.6856 65.1313 96.5549 64.0004 95.1593 64.0004H41.2646C39.869 64.0004 38.7383 65.1313 38.7383 66.5266C38.7383 67.9219 39.8693 69.0529 41.2646 69.0529Z" fill="white"/>
<path d="M115.37 30.3156H41.2646C39.869 30.3156 38.7383 31.4462 38.7383 32.8418C38.7383 34.2374 39.869 35.368 41.2646 35.368H115.37C116.765 35.368 117.896 34.2374 117.896 32.8418C117.896 31.4462 116.765 30.3156 115.37 30.3156Z" fill="white"/>
<path d="M115.37 77.4738H112.001C110.606 77.4738 109.475 78.6047 109.475 80C109.475 81.3956 110.606 82.5262 112.001 82.5262H115.37C116.765 82.5262 117.896 81.3953 117.896 80C117.896 78.6044 116.765 77.4738 115.37 77.4738Z" fill="white"/>
</g>
<defs>
<clipPath id="clip0_33_725">
<rect width="160" height="160" fill="white"/>
</clipPath>
</defs>
</svg>
