<svg width="54" height="76" viewBox="0 0 54 76" fill="none" xmlns="http://www.w3.org/2000/svg">
<path d="M52.4643 0.848145H30.7768C30.6332 0.848063 30.4909 0.876297 30.3582 0.931234C30.2254 0.986171 30.1048 1.06673 30.0033 1.16831C29.9017 1.26989 29.8211 1.3905 29.7662 1.52324C29.7112 1.65597 29.683 1.79824 29.6831 1.94189V4.08189C28.9239 4.22674 28.2009 4.52053 27.5559 4.9463C26.9109 5.37206 26.3566 5.92137 25.925 6.56252C19.9378 6.71832 14.2478 9.20427 10.0656 13.4914C5.88345 17.7785 3.53925 23.5284 3.53183 29.5175V46.6988L2.64371 50.7913H1.53558C1.2455 50.7913 0.967304 50.9065 0.762186 51.1116C0.557068 51.3167 0.441833 51.5949 0.441833 51.885V74.0581C0.441833 74.3482 0.557068 74.6264 0.762186 74.8315C0.967304 75.0367 1.2455 75.1519 1.53558 75.1519H12.0625C12.2061 75.152 12.3484 75.1237 12.4811 75.0688C12.6139 75.0139 12.7345 74.9333 12.836 74.8317C12.9376 74.7301 13.0182 74.6095 13.0731 74.4768C13.1281 74.3441 13.1563 74.2018 13.1562 74.0581V51.885C13.1563 51.7414 13.1281 51.5991 13.0731 51.4664C13.0182 51.3336 12.9376 51.213 12.836 51.1114C12.7345 51.0099 12.6139 50.9293 12.4811 50.8744C12.3484 50.8194 12.2061 50.7912 12.0625 50.7913H10.9568L10.0687 46.6988V29.4919C10.0743 25.2348 11.7326 21.1461 14.6941 18.088C17.6557 15.0298 21.689 13.241 25.9437 13.0988C26.1056 13.3336 26.2846 13.556 26.4793 13.7644V18.2963C23.4946 18.5719 20.7202 19.9515 18.699 22.1649C16.6778 24.3783 15.5553 27.2664 15.5512 30.2638V70.9331C15.5524 72.0517 15.9972 73.1241 16.7881 73.915C17.579 74.7059 18.6514 75.1507 19.77 75.1519H41.7781C42.8966 75.1507 43.969 74.7059 44.7599 73.915C45.5508 73.1241 45.9957 72.0517 45.9968 70.9331V30.2638C45.9927 27.2662 44.87 24.378 42.8486 22.1645C40.8271 19.9511 38.0524 18.5716 35.0675 18.2963V13.7644C35.8002 12.971 36.2979 11.9894 36.505 10.9294C41.12 11.0934 45.6476 12.2357 49.7881 14.2806C50.0417 14.4215 50.3409 14.4559 50.6199 14.3762C50.8988 14.2965 51.1347 14.1093 51.2756 13.8556C51.4165 13.602 51.4509 13.3028 51.3712 13.0239C51.2914 12.7449 51.1042 12.509 50.8506 12.3681C47.9163 10.8722 44.7729 9.82773 41.5268 9.27002L52.7593 6.12502C52.9891 6.06044 53.1915 5.92254 53.3357 5.73232C53.4799 5.5421 53.558 5.30997 53.5581 5.07127V1.94627C53.5587 1.80227 53.5308 1.65957 53.4761 1.52637C53.4214 1.39316 53.3409 1.27207 53.2393 1.17004C53.1377 1.06801 53.0169 0.987057 52.8839 0.931818C52.7509 0.876579 52.6083 0.848144 52.4643 0.848145ZM30.7768 6.16064C31.4996 6.16077 32.206 6.3752 32.8069 6.77682C33.4078 7.17844 33.8761 7.74922 34.1526 8.41698C34.4291 9.08474 34.5014 9.8195 34.3603 10.5283C34.2192 11.2372 33.8711 11.8883 33.36 12.3993C32.8489 12.9103 32.1978 13.2583 31.4889 13.3992C30.7801 13.5402 30.0453 13.4678 29.3776 13.1912C28.7099 12.9146 28.1392 12.4462 27.7377 11.8452C27.3361 11.2443 27.1218 10.5378 27.1218 9.81502C27.1235 8.84682 27.5088 7.91876 28.1935 7.23414C28.8781 6.54952 29.8061 6.16417 30.7743 6.16252L30.7768 6.16064ZM28.6706 18.2394V15.2594C30.024 15.7921 31.529 15.7921 32.8825 15.2594V18.2413L28.6706 18.2394ZM10.9706 72.9644H2.62933V52.9788H10.9706V72.9644ZM4.88246 50.7913L5.50746 47.91H8.09308L8.71808 50.7913H4.88246ZM7.88246 29.4919V45.7225H5.71933V29.5175C5.72625 24.2636 7.72075 19.2068 11.3023 15.3628C14.8838 11.5188 19.7871 9.17225 25.0275 8.79439C24.8941 9.51008 24.9003 10.2448 25.0456 10.9581C20.3782 11.323 16.0196 13.4331 12.8385 16.868C9.65743 20.3029 7.88741 24.8103 7.88121 29.4919H7.88246ZM43.8125 30.2638V70.9331C43.8118 71.4717 43.5976 71.9879 43.2168 72.3687C42.836 72.7495 42.3197 72.9637 41.7812 72.9644H19.77C19.2314 72.9637 18.7152 72.7495 18.3344 72.3687C17.9536 71.9879 17.7394 71.4717 17.7387 70.9331V30.2638C17.7417 27.6562 18.7789 25.1562 20.6228 23.3124C22.4667 21.4687 24.9667 20.4316 27.5743 20.4288H33.9737C36.5818 20.4308 39.0826 21.4675 40.9272 23.3113C42.7718 25.1552 43.8095 27.6556 43.8125 30.2638ZM51.375 4.23939L36.4406 8.42314C36.1723 7.33855 35.5992 6.35341 34.7889 5.58413C33.9787 4.81484 32.9651 4.29357 31.8681 4.08189V3.03564H51.3681L51.375 4.23939Z" fill="white"/>
<path d="M20.21 36.7717V56.6205C20.2099 56.7641 20.2381 56.9064 20.2931 57.0391C20.348 57.1719 20.4285 57.2925 20.5301 57.3941C20.6317 57.4956 20.7523 57.5762 20.8851 57.6311C21.0178 57.6861 21.1601 57.7143 21.3037 57.7142H40.2443C40.5344 57.7142 40.8126 57.599 41.0177 57.3939C41.2229 57.1888 41.3381 56.9106 41.3381 56.6205V36.7717C41.3381 36.4817 41.2229 36.2035 41.0177 35.9983C40.8126 35.7932 40.5344 35.678 40.2443 35.678H21.3068C21.1629 35.6775 21.0203 35.7054 20.8872 35.7602C20.7541 35.8149 20.6331 35.8954 20.5312 35.997C20.4293 36.0987 20.3485 36.2194 20.2933 36.3524C20.2382 36.4853 20.2099 36.6278 20.21 36.7717ZM22.3975 37.8655H39.1506V55.5267H22.4006L22.3975 37.8655Z" fill="white"/>
</svg>
