<svg width="24" height="25" viewBox="0 0 24 25" fill="none" xmlns="http://www.w3.org/2000/svg">
<circle cx="12" cy="12.5" r="11.5" fill="white" stroke="#E27410"/>
<path d="M12 19.6902C8.03549 19.6902 4.81012 16.4648 4.81012 12.5002C4.81012 8.53583 8.03549 5.31055 12 5.31055C15.9645 5.31055 19.1898 8.53583 19.1898 12.5002C19.1898 16.4648 15.9645 19.6902 12 19.6902ZM12 6.31055C8.58686 6.31055 5.81012 9.08723 5.81012 12.5002C5.81012 15.9134 8.58686 18.6902 12 18.6902C15.4131 18.6902 18.1899 15.9134 18.1899 12.5002C18.1899 9.08723 15.4131 6.31055 12 6.31055Z" fill="#E27410"/>
<path d="M14.41 14.8929C14.3213 14.8929 14.2315 14.8693 14.1503 14.8197L11.7398 13.3507C11.5908 13.2599 11.5 13.0981 11.5 12.9237V9.37402C11.5 9.0979 11.7239 8.87402 12 8.87402C12.2761 8.87402 12.5 9.0979 12.5 9.37402V12.6429L14.6707 13.9658C14.9065 14.1095 14.9811 14.4172 14.8374 14.653C14.7433 14.8075 14.5786 14.8929 14.41 14.8929Z" fill="#E27410"/>
</svg>
